<?xml version="1.0" standalone="no"?>
<!DOCTYPE svg PUBLIC "-//W3C//DTD SVG 20010904//EN"
 "http://www.w3.org/TR/2001/REC-SVG-20010904/DTD/svg10.dtd">
<svg version="1.0" xmlns="http://www.w3.org/2000/svg"
 width="269.000000pt" height="269.000000pt" viewBox="0 0 269.000000 269.000000"
 preserveAspectRatio="xMidYMid meet">
<metadata>
Created by potrace 1.14, written by Peter Selinger 2001-2017
</metadata>
<g transform="translate(0.000000,269.000000) scale(0.100000,-0.100000)"
fill="#000000" stroke="none">
<path d="M1137 2684 c-1 -1 -60 -4 -132 -8 -71 -3 -141 -8 -155 -10 -14 -3
-50 -7 -80 -10 -111 -12 -147 -18 -250 -36 -113 -20 -142 -26 -168 -34 -9 -3
-29 -7 -44 -10 -73 -12 -224 -62 -245 -80 -30 -27 -38 -92 -38 -316 0 -247 17
-394 72 -620 109 -452 337 -855 670 -1182 202 -199 438 -378 499 -378 56 0
358 234 524 407 168 173 322 380 400 534 36 72 37 72 81 41 29 -21 39 -36 45
-66 9 -54 38 -79 124 -106 73 -22 83 -24 127 -21 57 3 93 143 56 214 -17 32
-76 107 -130 164 -30 31 -29 36 6 28 87 -19 155 1 167 50 6 24 -14 106 -43
177 -11 26 -28 43 -61 60 -25 13 -63 40 -84 61 l-40 38 20 107 c36 186 46 291
47 477 0 177 -10 292 -30 321 -22 34 -222 90 -490 139 -35 6 -229 32 -295 39
-121 13 -542 28 -553 20z m1246 -1420 l17 -35 -22 6 c-33 10 -41 20 -33 44 9
30 19 26 38 -15z"/>
</g>
</svg>
